<svg xmlns="http://www.w3.org/2000/svg" xmlns:xlink="http://www.w3.org/1999/xlink" viewBox="0 0 952.66 295.28"><defs><style>.cls-1,.cls-10,.cls-12,.cls-17,.cls-2,.cls-3,.cls-4,.cls-6,.cls-7,.cls-9{fill:#fff;}.cls-1,.cls-10,.cls-11,.cls-12,.cls-2,.cls-20,.cls-3,.cls-4,.cls-5,.cls-6,.cls-7,.cls-8,.cls-9{stroke-miterlimit:10;}.cls-1{stroke:url(#linear-gradient);}.cls-2{stroke:url(#linear-gradient-2);}.cls-3{stroke:url(#linear-gradient-3);}.cls-4{stroke:url(#linear-gradient-4);}.cls-14,.cls-16,.cls-5{fill:#7b00ff;}.cls-11,.cls-20,.cls-5,.cls-8{stroke:#000;}.cls-6{stroke:url(#linear-gradient-5);}.cls-7{stroke:url(#linear-gradient-6);}.cls-15,.cls-18,.cls-8{fill:#00d1ff;}.cls-9{stroke:url(#linear-gradient-7);}.cls-10{stroke:url(#linear-gradient-8);}.cls-11,.cls-19,.cls-21{fill:#50ff54;}.cls-12{stroke:url(#linear-gradient-9);}.cls-13,.cls-14,.cls-15,.cls-21{font-size:19.52px;font-family:Poppins-SemiBold, Poppins;font-weight:600;}.cls-13{fill:#170132;}.cls-20{fill:url(#linear-gradient-10);}.cls-22{fill:url(#linear-gradient-11);}</style><linearGradient id="linear-gradient" y1="37.19" x2="197.74" y2="37.19" gradientUnits="userSpaceOnUse"><stop offset="0" stop-color="#010b16"/><stop offset="0.99" stop-color="#2e0259"/></linearGradient><linearGradient id="linear-gradient-2" x1="196.74" y1="37.19" x2="394.47" y2="37.19" xlink:href="#linear-gradient"/><linearGradient id="linear-gradient-3" x1="393.47" y1="37.19" x2="591.21" y2="37.19" xlink:href="#linear-gradient"/><linearGradient id="linear-gradient-4" y1="110.56" x2="197.74" y2="110.56" xlink:href="#linear-gradient"/><linearGradient id="linear-gradient-5" x1="393.47" y1="110.56" x2="591.21" y2="110.56" xlink:href="#linear-gradient"/><linearGradient id="linear-gradient-6" y1="183.93" x2="197.74" y2="183.93" xlink:href="#linear-gradient"/><linearGradient id="linear-gradient-7" x1="393.47" y1="183.93" x2="591.21" y2="183.93" xlink:href="#linear-gradient"/><linearGradient id="linear-gradient-8" y1="257.3" x2="197.74" y2="257.3" xlink:href="#linear-gradient"/><linearGradient id="linear-gradient-9" x1="393.47" y1="258.09" x2="591.21" y2="258.09" xlink:href="#linear-gradient"/><linearGradient id="linear-gradient-10" x1="650.06" y1="147.06" x2="952.16" y2="147.06" xlink:href="#linear-gradient"/><linearGradient id="linear-gradient-11" x1="844.24" y1="30.47" x2="679.76" y2="248.75" gradientUnits="userSpaceOnUse"><stop offset="0" stop-color="#60ee84"/><stop offset="0.33" stop-color="#00d1ff"/><stop offset="0.86" stop-color="#7b00ff"/></linearGradient></defs><title>color tab</title><g id="Layer_2" data-name="Layer 2"><g id="Layer_2-2" data-name="Layer 2"><rect class="cls-1" x="0.5" y="0.5" width="196.74" height="73.37"/><rect class="cls-2" x="197.24" y="0.5" width="196.74" height="73.37"/><rect class="cls-3" x="393.97" y="0.5" width="196.74" height="73.37"/><rect class="cls-4" x="0.5" y="73.87" width="196.74" height="73.37"/><rect class="cls-5" x="197.24" y="73.87" width="196.74" height="73.37"/><rect class="cls-6" x="393.97" y="73.87" width="196.74" height="73.37"/><rect class="cls-7" x="0.5" y="147.25" width="196.74" height="73.37"/><rect class="cls-8" x="197.24" y="147.25" width="196.74" height="73.37"/><rect class="cls-9" x="393.97" y="147.25" width="196.74" height="73.37"/><rect class="cls-10" x="0.5" y="220.62" width="196.74" height="73.37"/><rect class="cls-11" x="197.24" y="220.62" width="196.74" height="73.37"/><rect class="cls-12" x="393.97" y="221.41" width="196.74" height="73.37"/><text class="cls-13" transform="translate(68.09 49.27)">Code</text><text class="cls-14" transform="translate(61.58 119.22)">#7B00FF</text><text class="cls-15" transform="translate(68.09 188.08)">#00D1FF</text><rect class="cls-16" x="473.77" y="89.73" width="32.78" height="32.78" rx="16.39"/><path class="cls-17" d="M490.33,99.91V100l-6.22.17,4.67-7.28.12.16Zm-6.22.26,0,.07,5.14,7,1.12-7.28h0Zm9.79-.27-3.57.1h0l-1.12,7.28h0l0,0,1.27-2,.73-1.13h0l2.71-4.23Zm-2.93-4-.8-1.09-1.27-1.75,1.43,6.86V100l3.55-.1Zm-1.71,14.73-3.85,4.16,3.15,4.57,3.7-5Zm-.64-.25-3.82,3.93-8-10.75h7.27Zm8.71-10.27-7.5,10.18,2.84,3.55,10.59-13.73Z"/><rect class="cls-18" x="473.37" y="171.61" width="32.78" height="32.78" rx="16.39"/><rect class="cls-19" x="476.18" y="242.27" width="32.78" height="32.78" rx="16.39"/><path class="cls-17" d="M490.07,180.61v.09l-6.23.17,4.67-7.28.12.16Zm-6.22.26,0,.07,5.14,7,1.13-7.28h0Zm9.79-.27-3.56.1h0L489,188h0l0,0,1.27-2,.73-1.13h0l2.71-4.23Zm-2.93-4-.8-1.09-1.27-1.75,1.43,6.86v.09l3.55-.1ZM489,191.32l-3.85,4.16,3.15,4.57,3.7-5Zm-.63-.25L484.54,195l-8-10.75h7.27Zm8.7-10.27L489.57,191l2.85,3.55L503,180.8Z"/><path class="cls-17" d="M493.24,253.5v.1l-6.4.17,4.8-7.48.12.16Zm-6.4.27,0,.07,5.28,7.24,1.16-7.48h0Zm10.07-.28-3.67.11h0l-1.16,7.48h0l0,0,1.31-2,.75-1.17h0l2.79-4.34Zm-3-4.12-.82-1.12-1.31-1.8,1.48,7.05v.1l3.65-.11Zm-1.75,15.15-4,4.27,3.25,4.7,3.8-5.11Zm-.66-.26-3.93,4-8.22-11.05h7.48Zm8.95-10.56-7.71,10.46,2.93,3.65,10.88-14.11Z"/><text class="cls-13" transform="translate(460.66 49.27)">Symbol</text><text class="cls-13" transform="translate(258.41 44.93)">Color </text><rect class="cls-20" x="650.06" y="1.62" width="302.1" height="290.88" rx="47.11"/><text class="cls-21" transform="translate(68.09 263.88)">#50FF54</text><path class="cls-22" d="M933.61,88.37,886.1,147l-7.79,9.6-28.88,35.63-27.06-33.34,53-70.48ZM802.06,179.46,773,215.34l29.09,35.88,29.1-35.88Zm.59-136.57-.15.19L766,88.12l36.53,45,36.31-44.79.37-.44ZM728.19,88.37H667.61l86.58,103.82,28.08-33.34Z"/></g></g></svg>